<svg width="33" height="32" viewBox="0 0 33 32" fill="none" xmlns="http://www.w3.org/2000/svg">
<path id="Vector" d="M12.7468 0.232981C12.9273 0.293544 13.1035 0.365578 13.2745 0.448623L15.3315 1.44781C15.8897 1.71898 16.544 1.71898 17.1021 1.44781L19.1592 0.448623C21.344 -0.612753 23.9875 0.274433 25.0631 2.43019L25.181 2.68701L25.2817 2.95081L26.0201 5.09236C26.2206 5.67358 26.6832 6.13002 27.2722 6.32774L29.4427 7.05623C31.7485 7.83008 32.9818 10.3016 32.1975 12.5764C32.1361 12.7544 32.0631 12.9284 31.9789 13.097L30.9661 15.1265C30.6913 15.6773 30.6913 16.3228 30.9661 16.8735L31.9789 18.903C33.0547 21.0587 32.1555 23.6668 29.9705 24.7281C29.7995 24.8111 29.6233 24.8833 29.4427 24.9437L27.2722 25.6723C26.6832 25.87 26.2206 26.3265 26.0201 26.9076L25.2817 29.0491C24.4974 31.324 21.9925 32.5408 19.6868 31.767C19.5063 31.7064 19.3301 31.6345 19.1592 31.5514L17.1021 30.5521C16.544 30.281 15.8897 30.281 15.3315 30.5521L13.2745 31.5514C11.0895 32.6128 8.44617 31.7256 7.37041 29.5698C7.28622 29.4011 7.21322 29.2273 7.15185 29.0491L6.41348 26.9076C6.21308 26.3265 5.75046 25.87 5.16136 25.6723L2.9908 24.9437C0.6851 24.1699 -0.54819 21.6985 0.236138 19.4236C0.297522 19.2456 0.370532 19.0717 0.454702 18.903L1.46742 16.8735C1.74227 16.3228 1.74227 15.6773 1.46742 15.1265L0.454702 13.097C-0.621056 10.9413 0.278151 8.33325 2.46312 7.27188C2.6341 7.18882 2.81037 7.11678 2.9908 7.05623L5.16136 6.32774C5.75046 6.13002 6.21308 5.67358 6.41348 5.09236L7.15185 2.95081C7.93618 0.675941 10.4411 -0.540862 12.7468 0.232981ZM21.7807 11.2057L13.0905 19.7795L9.92474 16.0315C9.49952 15.5279 8.74117 15.4599 8.23091 15.8795C7.72064 16.299 7.65171 17.0472 8.07692 17.5507L12.0858 22.297C12.5385 22.833 13.3601 22.8699 13.8601 22.3764L23.4814 12.8837C23.9511 12.4204 23.9511 11.6691 23.4814 11.2057C23.0117 10.7423 22.2503 10.7423 21.7807 11.2057Z" fill="#CF2E2E"/>
</svg>
