<svg width="10" height="10" viewBox="0 0 10 10" fill="none" xmlns="http://www.w3.org/2000/svg">
<path id="Vector" fill-rule="evenodd" clip-rule="evenodd" d="M5.64141 9.05876C5.57648 9.17138 5.48304 9.2649 5.37049 9.32993C5.25793 9.39496 5.13024 9.4292 5.00025 9.4292C4.87026 9.4292 4.74256 9.39496 4.63001 9.32993C4.51745 9.2649 4.42401 9.17138 4.35909 9.05876L0.0991532 1.6806C0.0341975 1.56809 1.65207e-06 1.44047 7.09754e-07 1.31056C-2.32563e-07 1.18065 0.0341947 1.05303 0.0991485 0.940522C0.164102 0.828015 0.257526 0.734589 0.370031 0.669631C0.482536 0.604674 0.610157 0.570475 0.740067 0.570472L9.25993 0.570473C9.38984 0.570476 9.51747 0.604674 9.62997 0.669632C9.74247 0.73459 9.8359 0.828016 9.90085 0.940523C9.96581 1.05303 10 1.18065 10 1.31056C10 1.44047 9.9658 1.5681 9.90085 1.6806L5.64141 9.05876Z" fill="#CF2E2E"/>
</svg>
