<svg width="24" height="25" viewBox="0 0 24 25" fill="none" xmlns="http://www.w3.org/2000/svg">
<g id="eva:options-2-outline">
<path id="Vector" d="M19 9.26652C18.3811 9.26826 17.7778 9.46139 17.2729 9.81945C16.7681 10.1775 16.3863 10.683 16.18 11.2665H3C2.73478 11.2665 2.48043 11.3719 2.29289 11.5594C2.10536 11.7469 2 12.0013 2 12.2665C2 12.5317 2.10536 12.7861 2.29289 12.9736C2.48043 13.1612 2.73478 13.2665 3 13.2665H16.18C16.3635 13.7854 16.6861 14.2438 17.1126 14.5916C17.5392 14.9394 18.0532 15.1631 18.5984 15.2383C19.1435 15.3136 19.6989 15.2374 20.2037 15.0181C20.7085 14.7988 21.1432 14.4449 21.4603 13.9951C21.7775 13.5453 21.9647 13.0169 22.0017 12.4678C22.0386 11.9187 21.9238 11.37 21.6697 10.8818C21.4157 10.3936 21.0323 9.98464 20.5614 9.69974C20.0905 9.41485 19.5504 9.26497 19 9.26652ZM19 13.2665C18.8022 13.2665 18.6089 13.2079 18.4444 13.098C18.28 12.9881 18.1518 12.8319 18.0761 12.6492C18.0004 12.4665 17.9806 12.2654 18.0192 12.0714C18.0578 11.8774 18.153 11.6993 18.2929 11.5594C18.4327 11.4196 18.6109 11.3243 18.8049 11.2857C18.9989 11.2471 19.2 11.2669 19.3827 11.3426C19.5654 11.4183 19.7216 11.5465 19.8315 11.7109C19.9414 11.8754 20 12.0687 20 12.2665C20 12.5317 19.8946 12.7861 19.7071 12.9736C19.5196 13.1612 19.2652 13.2665 19 13.2665ZM3 7.26652H4.18C4.3902 7.84567 4.77363 8.34606 5.27817 8.69967C5.7827 9.05329 6.38388 9.24299 7 9.24299C7.61612 9.24299 8.2173 9.05329 8.72184 8.69967C9.22637 8.34606 9.6098 7.84567 9.82 7.26652H21C21.2652 7.26652 21.5196 7.16116 21.7071 6.97362C21.8946 6.78609 22 6.53173 22 6.26652C22 6.0013 21.8946 5.74695 21.7071 5.55941C21.5196 5.37187 21.2652 5.26652 21 5.26652H9.82C9.6098 4.68736 9.22637 4.18698 8.72184 3.83336C8.2173 3.47974 7.61612 3.29004 7 3.29004C6.38388 3.29004 5.7827 3.47974 5.27817 3.83336C4.77363 4.18698 4.3902 4.68736 4.18 5.26652H3C2.73478 5.26652 2.48043 5.37187 2.29289 5.55941C2.10536 5.74695 2 6.0013 2 6.26652C2 6.53173 2.10536 6.78609 2.29289 6.97362C2.48043 7.16116 2.73478 7.26652 3 7.26652ZM7 5.26652C7.19778 5.26652 7.39112 5.32516 7.55557 5.43505C7.72002 5.54493 7.84819 5.70111 7.92388 5.88383C7.99957 6.06656 8.01937 6.26763 7.98079 6.46161C7.9422 6.65559 7.84696 6.83377 7.70711 6.97362C7.56725 7.11347 7.38907 7.20872 7.19509 7.2473C7.00111 7.28589 6.80004 7.26608 6.61732 7.1904C6.43459 7.11471 6.27841 6.98654 6.16853 6.82209C6.05865 6.65764 6 6.4643 6 6.26652C6 6.0013 6.10536 5.74695 6.29289 5.55941C6.48043 5.37187 6.73478 5.26652 7 5.26652ZM21 17.2665H13.82C13.6098 16.6874 13.2264 16.187 12.7218 15.8334C12.2173 15.4797 11.6161 15.29 11 15.29C10.3839 15.29 9.7827 15.4797 9.27816 15.8334C8.77363 16.187 8.3902 16.6874 8.18 17.2665H3C2.73478 17.2665 2.48043 17.3719 2.29289 17.5594C2.10536 17.7469 2 18.0013 2 18.2665C2 18.5317 2.10536 18.7861 2.29289 18.9736C2.48043 19.1612 2.73478 19.2665 3 19.2665H8.18C8.3902 19.8457 8.77363 20.3461 9.27816 20.6997C9.7827 21.0533 10.3839 21.243 11 21.243C11.6161 21.243 12.2173 21.0533 12.7218 20.6997C13.2264 20.3461 13.6098 19.8457 13.82 19.2665H21C21.2652 19.2665 21.5196 19.1612 21.7071 18.9736C21.8946 18.7861 22 18.5317 22 18.2665C22 18.0013 21.8946 17.7469 21.7071 17.5594C21.5196 17.3719 21.2652 17.2665 21 17.2665ZM11 19.2665C10.8022 19.2665 10.6089 19.2079 10.4444 19.098C10.28 18.9881 10.1518 18.8319 10.0761 18.6492C10.0004 18.4665 9.98063 18.2654 10.0192 18.0714C10.0578 17.8774 10.153 17.6993 10.2929 17.5594C10.4327 17.4196 10.6109 17.3243 10.8049 17.2857C10.9989 17.2471 11.2 17.2669 11.3827 17.3426C11.5654 17.4183 11.7216 17.5465 11.8315 17.7109C11.9414 17.8754 12 18.0687 12 18.2665C12 18.5317 11.8946 18.7861 11.7071 18.9736C11.5196 19.1612 11.2652 19.2665 11 19.2665Z" fill="#94A3B8"/>
</g>
</svg>
