<svg width="18" height="18" viewBox="0 0 18 18" fill="none" xmlns="http://www.w3.org/2000/svg">
<path id="Vector" d="M12.8445 11.3111H12.0369L11.7507 11.0351C12.9774 9.60401 13.6112 7.65154 13.2636 5.5764C12.7832 2.73459 10.4116 0.465229 7.54931 0.117669C3.22526 -0.413893 -0.413893 3.22526 0.117669 7.54931C0.465229 10.4116 2.73459 12.7832 5.5764 13.2636C7.65154 13.6112 9.60401 12.9774 11.0351 11.7507L11.3111 12.0369V12.8445L15.6556 17.189C16.0748 17.6081 16.7596 17.6081 17.1788 17.189C17.5979 16.7699 17.5979 16.085 17.1788 15.6659L12.8445 11.3111ZM6.71108 11.3111C4.16572 11.3111 2.11103 9.25645 2.11103 6.71108C2.11103 4.16572 4.16572 2.11103 6.71108 2.11103C9.25645 2.11103 11.3111 4.16572 11.3111 6.71108C11.3111 9.25645 9.25645 11.3111 6.71108 11.3111Z" fill="#94A3B8"/>
</svg>
