<svg width="41" height="41" viewBox="0 0 41 41" fill="none" xmlns="http://www.w3.org/2000/svg">
<g id="Group 2">
<circle id="Ellipse 55" cx="20.5" cy="20.5" r="20" fill="#FFDCE0"/>
<g id="real_estate_agent">
<mask id="mask0_983_2246" style="mask-type:alpha" maskUnits="userSpaceOnUse" x="8" y="8" width="25" height="25">
<rect id="Bounding box" x="8.5" y="8.5" width="24" height="24" fill="#D9D9D9"/>
</mask>
<g mask="url(#mask0_983_2246)">
<path id="real_estate_agent_2" d="M27.5002 22.8848V16.1348L22.2501 12.4617L17.0001 16.1348V18.231H15.5002V15.3944L22.2501 10.5771L29.0002 15.3944V22.8848H27.5002ZM22.7982 16.7213H23.7021V15.8175H22.7982V16.7213ZM20.7982 16.7213H21.7021V15.8175H20.7982V16.7213ZM22.7982 18.7213H23.7021V17.8175H22.7982V18.7213ZM20.7982 18.7213H21.7021V17.8175H20.7982V18.7213ZM15.2021 27.0771L22.4598 29.1309L28.429 27.281C28.3777 27.054 28.2719 26.88 28.1117 26.7588C27.9514 26.6377 27.77 26.5771 27.5675 26.5771H22.6702C22.2338 26.5771 21.863 26.5604 21.5579 26.5271C21.2527 26.4938 20.9393 26.4207 20.6175 26.3079L18.3598 25.5617L18.804 24.0925L20.829 24.7964C21.1316 24.8989 21.481 24.9688 21.8771 25.006C22.2732 25.0432 22.8367 25.0669 23.5675 25.0771C23.5675 24.8297 23.5117 24.6162 23.4002 24.4367C23.2886 24.2573 23.1418 24.1361 22.9598 24.0733L17.1579 21.9425C17.1386 21.9361 17.121 21.9313 17.105 21.9281C17.089 21.9249 17.0713 21.9233 17.0521 21.9233H15.2021V27.0771ZM10.2021 30.0002V20.4233H17.0408C17.1458 20.4233 17.2521 20.4349 17.3598 20.4579C17.4675 20.481 17.5675 20.5079 17.6598 20.5387L23.4867 22.6848C23.9405 22.8528 24.3174 23.1499 24.6174 23.5762C24.9174 24.0025 25.0674 24.5028 25.0674 25.0771H27.5675C28.2854 25.0771 28.8704 25.3089 29.3223 25.7723C29.7742 26.2358 30.0002 26.8374 30.0002 27.5771V28.3848L22.5098 30.7117L15.2021 28.6271V30.0002H10.2021ZM11.7021 28.5002H13.7021V21.9233H11.7021V28.5002Z" fill="#CF2E2E"/>
</g>
</g>
</g>
</svg>
