<svg width="41" height="41" viewBox="0 0 41 41" fill="none" xmlns="http://www.w3.org/2000/svg">
<g id="Group 3">
<circle id="Ellipse 56" cx="20.5" cy="20.5" r="20" fill="#FFDCE0"/>
<g id="support_agent">
<mask id="mask0_983_2318" style="mask-type:alpha" maskUnits="userSpaceOnUse" x="8" y="8" width="25" height="25">
<rect id="Bounding box" x="8.5" y="8.5" width="24" height="24" fill="#D9D9D9"/>
</mask>
<g mask="url(#mask0_983_2318)">
<path id="support_agent_2" d="M21.1346 28.5C20.9218 28.5 20.7436 28.4282 20.6 28.2846C20.4564 28.141 20.3846 27.9628 20.3846 27.75C20.3846 27.5371 20.4564 27.3589 20.6 27.2154C20.7436 27.0718 20.9218 27 21.1346 27H27.6923C27.7756 27 27.8477 26.9743 27.9086 26.9231C27.9695 26.8718 28 26.8045 28 26.7211V19.7269C28 17.8153 27.316 16.2061 25.9481 14.899C24.5801 13.592 22.9307 12.9385 21 12.9385C19.0692 12.9385 17.4198 13.592 16.0519 14.899C14.6839 16.2061 14 17.8153 14 19.7269V24.8654C14 25.0782 13.9282 25.2564 13.7846 25.4C13.641 25.5435 13.4628 25.6153 13.25 25.6153C12.7705 25.6153 12.359 25.4483 12.0154 25.1144C11.6718 24.7804 11.5 24.3737 11.5 23.8942V21.9519C11.5 21.6275 11.5923 21.3304 11.7769 21.0606C11.9615 20.7907 12.2026 20.5737 12.5 20.4096L12.5462 19.1327C12.6282 18.0442 12.9109 17.0359 13.3942 16.1077C13.8776 15.1795 14.4974 14.3715 15.2538 13.6837C16.0102 12.9958 16.8833 12.4599 17.8731 12.076C18.8628 11.692 19.9051 11.5 21 11.5C22.0948 11.5 23.1346 11.692 24.1192 12.076C25.1038 12.4599 25.9769 12.9933 26.7384 13.676C27.5 14.3587 28.1198 15.1641 28.598 16.0923C29.0762 17.0205 29.3615 18.0288 29.4538 19.1173L29.5 20.3692C29.791 20.5064 30.0304 20.7025 30.2182 20.9577C30.406 21.2128 30.5 21.4974 30.5 21.8115V24.0442C30.5 24.3583 30.406 24.6429 30.2182 24.898C30.0304 25.1532 29.791 25.3493 29.5 25.4865V26.7211C29.5 27.2134 29.3233 27.633 28.9701 27.9798C28.6169 28.3266 28.191 28.5 27.6923 28.5H21.1346ZM18.1923 21.7692C17.9474 21.7692 17.7388 21.6862 17.5664 21.5202C17.3939 21.3541 17.3077 21.1487 17.3077 20.9038C17.3077 20.6589 17.3939 20.4519 17.5664 20.2827C17.7388 20.1134 17.9474 20.0288 18.1923 20.0288C18.4372 20.0288 18.6458 20.1134 18.8183 20.2827C18.9907 20.4519 19.0769 20.6589 19.0769 20.9038C19.0769 21.1487 18.9907 21.3541 18.8183 21.5202C18.6458 21.6862 18.4372 21.7692 18.1923 21.7692ZM23.8077 21.7692C23.5628 21.7692 23.3541 21.6862 23.1817 21.5202C23.0093 21.3541 22.923 21.1487 22.923 20.9038C22.923 20.6589 23.0093 20.4519 23.1817 20.2827C23.3541 20.1134 23.5628 20.0288 23.8077 20.0288C24.0525 20.0288 24.2612 20.1134 24.4336 20.2827C24.606 20.4519 24.6923 20.6589 24.6923 20.9038C24.6923 21.1487 24.606 21.3541 24.4336 21.5202C24.2612 21.6862 24.0525 21.7692 23.8077 21.7692ZM15.3712 20.2C15.2673 18.5679 15.775 17.1715 16.8942 16.0106C18.0135 14.8497 19.3987 14.2692 21.05 14.2692C22.4371 14.2692 23.6612 14.6984 24.7221 15.5567C25.783 16.415 26.4269 17.5263 26.6538 18.8904C25.2333 18.8737 23.9208 18.5006 22.7163 17.7711C21.5118 17.0416 20.5872 16.0417 19.9423 14.7712C19.6885 16.0147 19.1564 17.1141 18.3461 18.0692C17.5359 19.0243 16.5442 19.7346 15.3712 20.2Z" fill="#CF2E2E"/>
</g>
</g>
</g>
</svg>
