<svg width="40" height="40" viewBox="0 0 40 40" fill="none" xmlns="http://www.w3.org/2000/svg">
<g id="Group 1">
<circle id="Ellipse 54" cx="20" cy="20" r="20" fill="#FFDCE0"/>
<g id="add_home_work">
<mask id="mask0_983_1248" style="mask-type:alpha" maskUnits="userSpaceOnUse" x="8" y="8" width="24" height="24">
<rect id="Bounding box" x="8" y="8" width="24" height="24" fill="#D9D9D9"/>
</mask>
<g mask="url(#mask0_983_1248)">
<path id="add_home_work_2" d="M10 28V18.75L16.5 14.1154L23 18.75V19.6269C22.7128 19.7782 22.4458 19.949 22.199 20.1394C21.9522 20.3298 21.7192 20.5429 21.5 20.7788V19.5L16.5 15.9692L11.5 19.5V26.5H13.8654V21.75H19.1346V26.5H19.6904C19.7275 26.7666 19.7817 27.0234 19.8529 27.2702C19.924 27.5169 20.0122 27.7602 20.1173 28H17.6346V23.25H15.3653V28H10ZM31 11V20.3461C30.7807 20.1295 30.5477 19.9356 30.301 19.7644C30.0541 19.5933 29.7871 19.4384 29.5 19.3V12.5H20.1923V14.2942L18.6923 13.2097V11H31ZM25.6154 16.3846H27.3846V14.6154H25.6154V16.3846ZM26.5 30C25.2513 30 24.1891 29.5621 23.3135 28.6865C22.4378 27.8109 22 26.7487 22 25.5C22 24.2513 22.4378 23.1891 23.3135 22.3135C24.1891 21.4378 25.2513 21 26.5 21C27.7487 21 28.8109 21.4378 29.6865 22.3135C30.5621 23.1891 31 24.2513 31 25.5C31 26.7487 30.5621 27.8109 29.6865 28.6865C28.8109 29.5621 27.7487 30 26.5 30ZM26.0577 28.4423H26.9423V25.9423H29.4423V25.0577H26.9423V22.5577H26.0577V25.0577H23.5577V25.9423H26.0577V28.4423Z" fill="#CF2E2E"/>
</g>
</g>
</g>
</svg>
