<svg width="27" height="27" viewBox="0 0 27 27" fill="none" xmlns="http://www.w3.org/2000/svg">
<g id="bookmark">
<mask id="mask0_826_572" style="mask-type:alpha" maskUnits="userSpaceOnUse" x="0" y="0" width="27" height="27">
<rect id="Bounding box" x="0.5" y="0.5" width="26" height="26" fill="#D9D9D9"/>
</mask>
<g mask="url(#mask0_826_572)">
<path id="bookmark_2" d="M6.45837 22.4373V6.24985C6.45837 5.70262 6.64796 5.23942 7.02712 4.86025C7.40629 4.48109 7.86949 4.2915 8.41672 4.2915H18.5833C19.1305 4.2915 19.5937 4.48109 19.9729 4.86025C20.3521 5.23942 20.5417 5.70262 20.5417 6.24985V22.4373L13.5 19.4164L6.45837 22.4373ZM8.08335 19.9456L13.5 17.6165L18.9167 19.9456V6.24985C18.9167 6.1665 18.882 6.0901 18.8125 6.02064C18.7431 5.9512 18.6667 5.91648 18.5833 5.91648H8.41672C8.33337 5.91648 8.25697 5.9512 8.18751 6.02064C8.11807 6.0901 8.08335 6.1665 8.08335 6.24985V19.9456Z" fill="white"/>
</g>
</g>
</svg>
