<svg width="14" height="15" viewBox="0 0 14 15" fill="none" xmlns="http://www.w3.org/2000/svg">
<g id="Group 138">
<g id="Group 103">
<g id="Group">
<path id="Vector" d="M7 1.34133C8.86906 1.34133 9.09046 1.34847 9.82858 1.38215C10.5111 1.41327 10.8817 1.52731 11.1284 1.62317C11.4551 1.75015 11.6883 1.90184 11.9332 2.14678C12.1782 2.39174 12.3299 2.62492 12.4569 2.95166C12.5527 3.19832 12.6668 3.56897 12.6979 4.25146C12.7316 4.98957 12.7387 5.21098 12.7387 7.08003C12.7387 8.94911 12.7316 9.17051 12.6979 9.90863C12.6668 10.5911 12.5527 10.9618 12.4569 11.2084C12.3299 11.5352 12.1782 11.7683 11.9333 12.0133C11.6883 12.2582 11.4551 12.4099 11.1284 12.5369C10.8817 12.6328 10.5111 12.7468 9.82858 12.7779C9.09058 12.8116 8.8692 12.8188 7 12.8188C5.13078 12.8188 4.90943 12.8116 4.17139 12.7779C3.4889 12.7468 3.11826 12.6328 2.8716 12.5369C2.54485 12.4099 2.31167 12.2582 2.06673 12.0133C1.82179 11.7683 1.67008 11.5352 1.5431 11.2084C1.44723 10.9618 1.3332 10.5911 1.30208 9.90863C1.2684 9.17051 1.26126 8.94911 1.26126 7.08003C1.26126 5.21098 1.2684 4.98957 1.30208 4.25146C1.3332 3.56897 1.44723 3.19832 1.5431 2.95166C1.67008 2.62492 1.82177 2.39174 2.06673 2.1468C2.31167 1.90184 2.54485 1.75015 2.8716 1.62317C3.11826 1.52731 3.4889 1.41327 4.17139 1.38215C4.90951 1.34847 5.13092 1.34133 7 1.34133ZM7 0.0800781C5.09891 0.0800781 4.86053 0.0881362 4.1139 0.122202C3.36884 0.156185 2.85998 0.274527 2.41473 0.447553C1.95442 0.626442 1.56405 0.865794 1.17487 1.25494C0.785719 1.64412 0.546366 2.03449 0.367504 2.4948C0.19445 2.94005 0.0761072 3.4489 0.0421243 4.19397C0.00805809 4.94059 0 5.17897 0 7.08003C0 8.98112 0.00805809 9.2195 0.0421243 9.96612C0.0761072 10.7112 0.19445 11.22 0.367504 11.6653C0.546366 12.1256 0.785719 12.516 1.17487 12.9051C1.56405 13.2943 1.95442 13.5336 2.41473 13.7125C2.85998 13.8856 3.36884 14.0039 4.1139 14.0379C4.86053 14.0719 5.09891 14.08 7 14.08C8.90107 14.08 9.13945 14.0719 9.88608 14.0379C10.6311 14.0039 11.14 13.8856 11.5852 13.7125C12.0456 13.5336 12.4359 13.2943 12.8251 12.9051C13.2143 12.516 13.4536 12.1256 13.6325 11.6653C13.8055 11.22 13.9239 10.7112 13.9579 9.96612C13.9919 9.2195 14 8.98112 14 7.08003C14 5.17897 13.9919 4.94059 13.9579 4.19397C13.9239 3.4489 13.8055 2.94005 13.6325 2.4948C13.4536 2.03449 13.2143 1.64412 12.8251 1.25494C12.4359 0.865794 12.0456 0.626442 11.5852 0.447553C11.14 0.274527 10.6311 0.156185 9.88608 0.122202C9.13945 0.0881362 8.90107 0.0800781 7 0.0800781Z" fill="white"/>
</g>
<g id="Group_2">
<path id="Vector_2" d="M7.00329 3.48926C5.01803 3.48926 3.40869 5.09859 3.40869 7.08382C3.40869 9.06908 5.01803 10.6784 7.00329 10.6784C8.98853 10.6784 10.5979 9.06908 10.5979 7.08382C10.5979 5.09859 8.98853 3.48926 7.00329 3.48926ZM7.00329 9.41716C5.71461 9.41716 4.66995 8.3725 4.66995 7.08382C4.66995 5.79517 5.71461 4.75051 7.00329 4.75051C8.29195 4.75051 9.33661 5.79517 9.33661 7.08382C9.33661 8.3725 8.29195 9.41716 7.00329 9.41716Z" fill="white"/>
</g>
<g id="Group_3">
<path id="Vector_3" d="M11.5797 3.3449C11.5797 3.80879 11.2036 4.18488 10.7396 4.18488C10.2757 4.18488 9.89966 3.80879 9.89966 3.3449C9.89966 2.88097 10.2757 2.50488 10.7396 2.50488C11.2036 2.50488 11.5797 2.88097 11.5797 3.3449Z" fill="white"/>
</g>
</g>
</g>
</svg>
