<svg width="16" height="14" viewBox="0 0 16 14" fill="none" xmlns="http://www.w3.org/2000/svg">
<path id="Vector" d="M14.1153 2.89214C14.801 2.50624 15.314 1.8986 15.5587 1.18266C14.9144 1.54256 14.2094 1.79609 13.4743 1.93227C12.4552 0.917333 10.8404 0.670337 9.53238 1.32931C8.22434 1.98828 7.54679 3.39007 7.87837 4.75139C5.23921 4.62665 2.78035 3.45302 1.11368 1.52254C0.243878 2.93493 0.688365 4.74043 2.12946 5.64863C1.60835 5.63286 1.09878 5.5 0.643274 5.26121C0.643274 5.27418 0.643274 5.28714 0.643274 5.30011C0.643573 6.77131 1.745 8.03865 3.2768 8.33022C2.79343 8.454 2.28642 8.47222 1.79444 8.3835C2.22522 9.6417 3.45697 10.5036 4.86089 10.5293C3.69812 11.3885 2.26215 11.8544 0.784015 11.8521C0.522016 11.8525 0.260224 11.8383 0 11.8097C1.50102 12.7177 3.24802 13.1996 5.03223 13.198C7.51452 13.214 9.89999 12.2928 11.6552 10.6402C13.4104 8.98772 14.3888 6.74186 14.3715 4.40503C14.3715 4.2711 14.3683 4.13788 14.3616 4.00539C15.0045 3.56801 15.5593 3.02618 16 2.40536C15.4011 2.65528 14.7658 2.81935 14.1153 2.89214Z" fill="white"/>
</svg>
