<svg width="13" height="15" viewBox="0 0 13 15" fill="none" xmlns="http://www.w3.org/2000/svg">
<path id="Vector" d="M11.0962 11.0962L10.2101 11.9725C9.557 12.6135 8.70965 13.4376 7.66761 14.445C7.01651 15.0746 5.9835 15.0745 5.33248 14.4449L2.72635 11.9098C2.39881 11.5882 2.12465 11.317 1.9038 11.0962C-0.634601 8.55781 -0.634601 4.44221 1.9038 1.9038C4.44221 -0.634601 8.55781 -0.634601 11.0962 1.9038C13.6346 4.44221 13.6346 8.55781 11.0962 11.0962ZM8.36641 6.70507C8.36641 5.67427 7.53077 4.83865 6.50001 4.83865C5.46924 4.83865 4.63359 5.67427 4.63359 6.70507C4.63359 7.73584 5.46924 8.57147 6.50001 8.57147C7.53077 8.57147 8.36641 7.73584 8.36641 6.70507Z" fill="white"/>
</svg>
