<svg width="11" height="14" viewBox="0 0 11 14" fill="none" xmlns="http://www.w3.org/2000/svg">
<path id="Vector" d="M1.81762 0.307293L2.64577 0.0664856C3.42178 -0.15916 4.25086 0.205506 4.58324 0.918624L5.24455 2.33777C5.53278 2.95618 5.37286 3.68342 4.84917 4.13571L3.39202 5.39431C3.48193 6.14712 3.76001 6.88842 4.22624 7.61824C4.69255 8.34799 5.27486 8.95335 5.97324 9.43432L7.72339 8.90323C8.38678 8.70191 9.10924 8.93326 9.51616 9.4773L10.4641 10.7447C10.9372 11.377 10.8521 12.2495 10.2651 12.7857L9.63608 13.3603C9.01001 13.9323 8.11578 14.1398 7.28855 13.905C5.33555 13.3506 3.53994 11.7048 1.90164 8.96749C0.260977 6.22615 -0.318061 3.90032 0.164531 1.99002C0.367608 1.1862 0.996461 0.546063 1.81762 0.307293Z" fill="white"/>
</svg>
