<svg width="12" height="13" viewBox="0 0 12 13" fill="none" xmlns="http://www.w3.org/2000/svg">
<path id="Vector" d="M6.66666 12.0801H4V4.08008H6.66666V5.41341C7.23506 4.69024 8.09706 4.25913 9.01666 4.23808C10.6704 4.24726 12.0048 5.59301 12 7.24675V12.0801H9.33332V7.58008C9.22666 6.83514 8.58786 6.28248 7.83533 6.28408C7.50619 6.29448 7.19546 6.43861 6.97493 6.68315C6.75439 6.92774 6.64306 7.25161 6.66666 7.58008V12.0801ZM2.66666 12.0801H0V4.08008H2.66666V12.0801ZM1.33333 2.74674C0.596953 2.74674 0 2.14979 0 1.41341C0 0.677031 0.596953 0.0800781 1.33333 0.0800781C2.06971 0.0800781 2.66666 0.677031 2.66666 1.41341C2.66666 1.76703 2.52619 2.10617 2.27614 2.35622C2.02609 2.60627 1.68695 2.74674 1.33333 2.74674Z" fill="white"/>
</svg>
